<!-- Fayl adı: google-logo.svg -->
<svg xmlns="http://www.w3.org/2000/svg" width="18" height="18" viewBox="0 0 48 48">
  <path fill="#fbc02d" d="M43.6 20.5H42V20H24v8h11.3c-1.6 4.6-5.9 8-11.3 8-6.6 0-12-5.4-12-12s5.4-12 12-12c3.1 0 5.9 1.2 8 3.1l5.7-5.7C34.1 7 29.3 5 24 5 12.9 5 4 13.9 4 25s8.9 20 20 20c11 0 20-9 20-20 0-1.2-.1-2.4-.4-3.5z"/>
  <path fill="#e53935" d="M6.3 14.1l6.6 4.8C14.3 15.1 18.8 12 24 12c3.1 0 5.9 1.2 8 3.1l5.7-5.7C34.1 7 29.3 5 24 5c-7.5 0-14.1 3.2-18.7 8.3z"/>
  <path fill="#4caf50" d="M24 45c5.3 0 10.1-2 13.8-5.2l-6.4-5.3c-2.3 1.5-5.2 2.4-8.3 2.4-5.4 0-9.9-3.4-11.5-8l-6.6 5.1C9.6 40.8 16.3 45 24 45z"/>
  <path fill="#1565c0" d="M43.6 20.5H42V20H24v8h11.3c-1 2.8-2.8 5.1-5.3 6.7l.1.1 6.4 5.3c-.5.5 7.5-5.5 7.5-15.6 0-1.2-.1-2.4-.4-3.5z"/>
</svg>
