<?xml version="1.0" standalone="no"?>
<!DOCTYPE svg PUBLIC "-//W3C//DTD SVG 20010904//EN"
 "http://www.w3.org/TR/2001/REC-SVG-20010904/DTD/svg10.dtd">
<svg version="1.0" xmlns="http://www.w3.org/2000/svg"
 width="1024.000000pt" height="1024.000000pt" viewBox="0 0 1024.000000 1024.000000"
 preserveAspectRatio="xMidYMid meet">

<g transform="translate(0.000000,1024.000000) scale(0.100000,-0.100000)"
fill="#000000" stroke="none">
<path d="M0 5120 l0 -5120 5120 0 5120 0 0 5120 0 5120 -5120 0 -5120 0 0
-5120z m2712 1491 c137 -35 262 -113 368 -228 181 -197 222 -503 100 -750 -51
-104 -125 -186 -501 -559 -276 -273 -299 -293 -376 -332 -113 -56 -212 -76
-327 -69 -168 12 -259 54 -396 185 -106 102 -107 116 -12 214 111 116 140 122
227 48 33 -28 84 -63 113 -77 45 -22 62 -25 121 -21 112 8 134 26 478 371 336
337 352 358 373 480 20 114 -12 217 -96 307 -106 113 -300 132 -452 43 -23
-14 -122 -108 -220 -208 l-177 -184 -75 26 c-65 23 -92 27 -200 27 -69 1 -138
-3 -155 -7 -23 -6 44 66 290 311 295 294 326 321 400 359 74 38 158 66 230 76
84 12 216 6 287 -12z m-933 -846 c35 -9 87 -28 115 -43 55 -29 309 -269 332
-314 19 -38 6 -66 -63 -137 -102 -105 -166 -95 -316 49 -51 48 -103 93 -117
100 -14 7 -50 13 -81 13 -104 0 -142 -27 -386 -278 -269 -278 -288 -307 -288
-454 0 -77 4 -105 22 -143 32 -71 103 -141 174 -173 56 -25 70 -27 148 -23
124 7 164 28 291 154 l107 105 44 -19 c80 -34 152 -47 266 -47 l111 1 -138
-146 c-226 -239 -276 -282 -382 -334 -122 -61 -212 -80 -343 -72 -55 3 -125
12 -155 22 -179 53 -348 194 -428 356 -118 237 -105 495 34 710 49 76 430 475
529 555 65 52 149 94 236 117 71 19 208 20 288 1z m1996 -320 c72 -29 134
-112 135 -178 l0 -28 -72 3 -72 3 -7 35 c-9 45 -32 60 -91 60 -62 0 -88 -24
-88 -80 0 -27 6 -45 21 -59 22 -20 33 -25 137 -62 133 -47 189 -119 179 -230
-7 -79 -40 -136 -100 -173 -41 -25 -61 -30 -131 -34 -69 -4 -90 -1 -134 18
-86 37 -143 119 -130 187 2 14 14 19 50 21 55 4 88 -11 88 -38 0 -35 57 -62
119 -57 63 5 91 30 91 82 0 53 -30 79 -132 115 -117 40 -167 73 -196 130 -36
69 -20 169 37 234 56 64 202 90 296 51z m2632 -11 c62 -30 105 -79 135 -154
20 -48 23 -73 22 -200 0 -123 -3 -153 -21 -196 -31 -78 -68 -120 -136 -154
-119 -59 -266 -34 -352 62 -68 76 -88 151 -83 316 3 114 6 133 31 187 16 33
40 73 55 88 81 86 232 107 349 51z m-2249 -131 l3 -143 114 0 114 0 3 143 3
142 73 3 72 3 -2 -368 -3 -368 -70 0 -70 0 -3 148 -3 147 -114 0 -114 0 -3
-147 -3 -148 -64 -3 c-45 -2 -67 1 -72 10 -10 16 -12 712 -2 722 4 4 37 6 73
4 l65 -3 3 -142z m876 138 c3 -5 44 -134 91 -288 46 -153 95 -311 109 -352 14
-40 23 -77 20 -82 -8 -14 -140 -11 -151 4 -6 6 -20 42 -32 80 l-23 67 -108 0
-109 0 -16 -57 c-29 -106 -26 -103 -104 -103 -38 0 -72 4 -75 9 -5 8 205 698
219 721 8 13 172 13 179 1z m701 -26 c106 -55 155 -157 155 -326 0 -188 -61
-298 -196 -349 -51 -19 -79 -23 -209 -24 l-150 -1 -3 368 -2 369 173 -4 c170
-3 175 -4 232 -33z m1072 -195 c28 -124 52 -239 52 -257 1 -42 21 -54 21 -13
0 42 99 471 113 488 7 9 30 12 71 10 l60 -3 12 -45 c14 -50 89 -393 101 -455
7 -38 7 -38 10 -10 4 28 98 460 109 498 4 14 18 17 80 17 52 0 74 -4 74 -12 0
-27 -163 -704 -173 -715 -6 -8 -36 -13 -82 -13 -46 0 -76 5 -83 13 -5 6 -34
115 -63 240 -49 207 -55 225 -62 190 -42 -187 -100 -420 -109 -430 -7 -8 -37
-13 -84 -13 -68 0 -75 2 -84 23 -8 19 -170 697 -170 712 0 3 35 5 77 3 l78 -3
52 -225z m925 -67 l3 -298 140 -2 140 -2 3 -71 3 -70 -218 2 -218 3 -3 355
c-1 195 0 361 3 367 3 9 27 13 75 13 l70 0 2 -297z m538 -61 c0 -265 -3 -361
-12 -370 -12 -12 -104 -17 -132 -6 -14 5 -16 47 -16 363 0 197 3 361 7 364 3
4 39 7 80 7 l73 0 0 -358z m399 171 c55 -104 110 -210 123 -237 l23 -48 5 233
5 234 70 0 70 0 3 -354 c2 -259 -1 -357 -9 -368 -9 -10 -31 -13 -82 -11 l-69
3 -55 100 c-30 55 -88 164 -129 242 l-74 143 0 -233 c0 -168 -3 -236 -12 -245
-12 -12 -95 -16 -122 -6 -14 5 -16 47 -16 363 0 197 3 361 7 364 3 4 41 7 84
7 l78 0 100 -187z m583 35 l3 -153 99 153 98 152 74 0 c67 0 74 -2 74 -20 0
-16 -142 -239 -185 -290 -11 -13 6 -46 106 -205 65 -104 119 -196 119 -202 0
-7 -6 -13 -12 -14 -67 -5 -116 -4 -133 2 -11 4 -59 70 -109 153 l-89 146 -23
-21 c-22 -20 -24 -31 -26 -153 l-3 -131 -70 0 -70 0 -3 368 -2 367 75 0 74 0
3 -152z m-6563 -445 c50 -100 72 -188 72 -288 1 -219 -49 -295 -437 -675 -225
-220 -320 -274 -506 -287 -204 -15 -401 61 -548 212 l-55 57 50 -9 c28 -4 122
-8 210 -8 135 1 173 4 240 24 142 40 177 68 502 409 198 208 217 238 211 335
l-3 62 109 113 c60 61 113 112 118 112 4 0 21 -26 37 -57z"/>
<path d="M6183 5292 c-45 -41 -58 -92 -58 -217 0 -93 4 -116 22 -151 29 -55
61 -74 124 -74 44 0 55 4 84 33 43 43 60 120 52 239 -9 144 -48 198 -142 198
-44 0 -58 -5 -82 -28z"/>
<path d="M4937 5260 c-4 -8 -19 -68 -35 -132 l-29 -116 68 -4 c38 -2 69 -1 69
2 -2 32 -69 261 -73 250z"/>
<path d="M5480 5080 l0 -233 73 7 c146 14 182 59 182 226 0 170 -35 214 -178
226 l-77 7 0 -233z"/>
</g>
</svg>
