<?xml version="1.0" standalone="no"?>
<!DOCTYPE svg PUBLIC "-//W3C//DTD SVG 20010904//EN"
 "http://www.w3.org/TR/2001/REC-SVG-20010904/DTD/svg10.dtd">
<svg version="1.0" xmlns="http://www.w3.org/2000/svg"
 width="1024.000000pt" height="1024.000000pt" viewBox="0 0 1024.000000 1024.000000"
 preserveAspectRatio="xMidYMid meet">

<g transform="translate(0.000000,1024.000000) scale(0.100000,-0.100000)"
fill="#000000" stroke="none">
<path d="M0 5120 l0 -5120 5120 0 5120 0 0 5120 0 5120 -5120 0 -5120 0 0
-5120z m6030 2905 c649 -88 1174 -592 1266 -1215 20 -137 15 -371 -11 -490
-42 -192 -140 -417 -245 -561 -80 -108 -1273 -1307 -1416 -1422 -241 -195
-481 -284 -791 -294 -204 -7 -327 19 -508 110 -155 77 -191 105 -433 334 -156
149 -175 173 -187 234 -14 76 7 114 143 252 243 246 273 246 526 -2 166 -163
215 -195 343 -226 141 -34 268 -7 406 85 104 70 1255 1226 1321 1327 150 230
169 518 51 758 -76 153 -211 289 -348 349 -180 80 -455 74 -641 -14 -106 -50
-164 -100 -518 -451 l-338 -334 -62 23 c-135 51 -263 73 -443 78 -93 3 -219 1
-280 -4 -60 -5 -113 -6 -117 -3 -9 8 1029 1045 1120 1120 330 270 767 400
1162 346z m-1794 -1686 c171 -24 372 -103 526 -207 80 -55 370 -313 459 -409
81 -88 93 -150 46 -239 -29 -54 -238 -251 -292 -275 -60 -27 -156 -31 -197 -9
-14 8 -102 88 -195 176 -258 247 -324 286 -488 285 -109 0 -200 -25 -300 -83
-58 -34 -149 -120 -536 -507 -488 -489 -529 -536 -590 -681 -48 -114 -62 -184
-62 -310 0 -129 16 -214 62 -314 69 -152 196 -288 336 -358 190 -97 446 -102
629 -15 102 49 165 101 406 336 118 116 218 210 221 211 4 0 34 -13 67 -30
189 -93 445 -121 702 -75 103 18 110 18 110 3 0 -32 -901 -910 -1005 -979
-164 -110 -372 -192 -564 -224 -82 -14 -137 -16 -255 -12 -277 11 -507 86
-738 239 -115 77 -335 292 -405 398 -97 145 -186 351 -224 519 -26 112 -37
402 -20 522 36 251 149 528 299 728 87 115 991 1016 1082 1078 278 187 625
274 926 232z m1944 -1994 c74 -312 -5 -659 -208 -910 -13 -16 -218 -225 -455
-463 -458 -460 -549 -540 -713 -624 -186 -96 -361 -138 -578 -138 -247 0 -472
63 -673 189 -49 30 -54 41 -17 41 50 0 231 42 345 80 134 44 230 90 346 166
90 58 371 323 748 706 122 123 430 429 685 681 l464 459 19 -54 c10 -29 27
-89 37 -133z"/>
</g>
</svg>
